<svg width="332" height="532" viewBox="0 0 332 532" fill="none" xmlns="http://www.w3.org/2000/svg">
<path d="M330.221 204.995C329.253 203.286 327.848 201.863 326.15 200.874C324.452 199.885 322.522 199.363 320.557 199.363H175.032L199.43 12.9502C199.692 10.4553 199.106 7.94497 197.768 5.82329C196.43 3.70162 194.416 2.09208 192.052 1.25383C189.687 0.415587 187.11 0.397408 184.734 1.20222C182.358 2.00704 180.322 3.58802 178.954 5.69061L1.98047 315.741C0.945585 317.424 0.378387 319.353 0.337357 321.329C0.296326 323.304 0.782947 325.255 1.74705 326.98C2.71116 328.704 4.11786 330.141 5.82209 331.141C7.52633 332.141 9.46643 332.668 11.4423 332.668H154.792L135.458 519.361C135.268 521.848 135.915 524.326 137.295 526.402C138.676 528.478 140.712 530.033 143.078 530.819C145.445 531.605 148.006 531.577 150.355 530.739C152.703 529.901 154.704 528.302 156.039 526.196L330.088 216.179C331.098 214.493 331.642 212.57 331.665 210.605C331.688 208.64 331.19 206.705 330.221 204.995Z" fill="#FF4C29"/>
<mask id="mask0" style="mask-type:alpha" maskUnits="userSpaceOnUse" x="0" y="0" width="332" height="532">
<path d="M330.221 204.995C329.253 203.286 327.848 201.863 326.15 200.874C324.452 199.885 322.522 199.363 320.557 199.363H175.032L199.43 12.9502C199.692 10.4553 199.106 7.94497 197.768 5.82329C196.43 3.70162 194.416 2.09208 192.052 1.25383C189.687 0.415587 187.11 0.397408 184.734 1.20222C182.358 2.00704 180.322 3.58802 178.954 5.69061L1.98047 315.741C0.945585 317.424 0.378387 319.353 0.337357 321.329C0.296326 323.304 0.782947 325.255 1.74705 326.98C2.71116 328.704 4.11786 330.141 5.82209 331.141C7.52633 332.141 9.46643 332.668 11.4423 332.668H154.792L135.458 519.361C135.268 521.848 135.915 524.326 137.295 526.402C138.676 528.478 140.712 530.033 143.078 530.819C145.445 531.605 148.006 531.577 150.355 530.739C152.703 529.901 154.704 528.302 156.039 526.196L330.088 216.179C331.098 214.493 331.642 212.57 331.665 210.605C331.688 208.64 331.19 206.705 330.221 204.995Z" fill="#FF4C29"/>
</mask>
<g mask="url(#mask0)">
<path d="M237.879 273.68C236.91 271.971 235.505 270.549 233.807 269.559C232.109 268.57 230.179 268.048 228.214 268.048H82.6896L107.087 81.6353C107.349 79.1405 106.764 76.6301 105.425 74.5084C104.087 72.3868 102.073 70.7772 99.709 69.939C97.3447 69.1007 94.767 69.0825 92.3911 69.8874C90.0152 70.6922 87.9792 72.2732 86.611 74.3757L-90.3623 384.426C-91.3972 386.109 -91.9644 388.038 -92.0054 390.014C-92.0464 391.989 -91.5598 393.94 -90.5957 395.665C-89.6316 397.389 -88.2249 398.826 -86.5207 399.826C-84.8164 400.826 -82.8763 401.353 -80.9004 401.353H62.4495L43.1147 588.047C42.9248 590.533 43.5717 593.011 44.9527 595.087C46.3337 597.164 48.3693 598.718 50.7357 599.504C53.1021 600.29 55.6634 600.262 58.012 599.424C60.3605 598.586 62.3615 596.987 63.6965 594.881L237.745 284.864C238.755 283.178 239.299 281.255 239.322 279.29C239.346 277.326 238.848 275.39 237.879 273.68Z" fill="#FFD83B" fill-opacity="0.2"/>
</g>
</svg>
