<svg width="34" height="34" viewBox="0 0 34 34" fill="none" xmlns="http://www.w3.org/2000/svg">
<path d="M8.51882 28.7659C9.20892 24.7925 12.6521 21.8616 16.7469 21.8616C20.842 21.8616 24.2849 24.7925 24.975 28.7659C22.6323 30.3755 19.7979 31.3191 16.7469 31.3191C13.696 31.3191 10.8615 30.3755 8.51882 28.7659Z" fill="#FF4C29"/>
<path d="M11.5005 14.6816C11.5005 11.7885 13.8541 9.43524 16.7469 9.43524C19.6398 9.43524 21.9933 11.7888 21.9933 14.6816C21.9933 17.5745 19.6398 19.928 16.7469 19.928C13.8541 19.928 11.5005 17.5745 11.5005 14.6816Z" fill="#FF4C29"/>
<path d="M26.6498 27.4247C26.1294 25.575 25.0959 23.8967 23.6472 22.5857C22.7584 21.7813 21.7468 21.1466 20.6592 20.6992C22.625 19.4169 23.9271 17.1986 23.9271 14.6816C23.9271 10.7225 20.706 7.50165 16.7469 7.50165C12.7878 7.50165 9.56694 10.7225 9.56694 14.6816C9.56694 17.1986 10.8691 19.4169 12.8347 20.6992C11.7473 21.1466 10.7354 21.781 9.84666 22.5854C8.39822 23.8964 7.36446 25.5747 6.84405 27.4245C3.97765 24.7625 2.18051 20.9638 2.18051 16.7527C2.18051 8.72072 8.71495 2.18628 16.7469 2.18628C24.7789 2.18628 31.3133 8.72072 31.3133 16.7527C31.3133 20.964 29.5162 24.7627 26.6498 27.4247Z" fill="#FF4C29"/>
</svg>
